#!OML:ASF I:\Random Stuff\random\construction\7_22_03\Session 2\subj1.ASF
:FULLY-SPECIFIED
:DEGREES
693
root -12.6725 17.6745 -0.425173 -176.356 -31.1149 -176.48
lowerback 5.33955 -2.1767 -3.55784
upperback -0.850372 -3.10846 0.897759
thorax -3.63392 -1.46195 3.17865
lowerneck -22.9384 2.6389 0.16339
upperneck 43.5445 -2.69709 5.06501
head 21.8403 -1.52859 1.49917
rclavicle -2.97183e-014 -1.63003e-014
rhumerus -39.1137 -31.5185 -24.3295
rradius 107.139
rwrist -57.4334
rhand -10.6327 7.87171
rfingers 7.12502
rthumb 15.3743 -21.5367
lclavicle -2.97183e-014 -1.63003e-014
lhumerus -11.7375 3.95679 67.9728
lradius 99.2954
lwrist 42.8711
lhand -11.7453 57.3482
lfingers 7.12502
lthumb -165.698 266.836
rfemur -11.47 1.23475 20.8421
rtibia 26.276
rfoot -16.8177 -6.32136
rtoes -18.9265
lfemur -16.5346 -0.85351 -18.4462
ltibia 24.8291
lfoot -17.4404 17.5547
ltoes -4.56837
694
root -12.631 17.6714 -0.408953 -176.161 -30.8939 -176.501
lowerback 5.29358 -2.15128 -3.35727
upperback -0.930373 -3.05542 1.05103
thorax -3.69704 -1.43582 3.22126
lowerneck -22.7525 2.52877 -0.00720524
upperneck 43.5463 -2.92363 5.22582
head 21.8051 -1.63487 1.55485
rclavicle -4.2192e-014 2.50469e-014
rhumerus -39.7266 -31.4544 -24.228
rradius 107.136
rwrist -56.352
rhand -10.5597 8.30129
rfingers 7.12502
rthumb 15.4446 -21.1017
lclavicle -4.2192e-014 2.50469e-014
lhumerus -12.7924 5.14617 67.6017
lradius 99.248
lwrist 42.1711
lhand -12.2028 56.806
lfingers 7.12502
lthumb -166.138 266.324
rfemur -10.4968 1.44282 20.9731
rtibia 25.3679
rfoot -16.8636 -6.64151
rtoes -20.4536
lfemur -16.9843 -0.229367 -18.3727
ltibia 25.0475
lfoot -17.1477 17.0237
ltoes -4.4498
695
root -12.5851 17.6669 -0.395471 -175.946 -30.6401 -176.538
lowerback 5.17752 -2.08403 -3.16526
upperback -0.958227 -2.9456 1.18491
thorax -3.67147 -1.38459 3.23936
lowerneck -22.701 2.42796 -0.160907
upperneck 43.5913 -3.16561 5.42101
head 21.8499 -1.73571 1.62557
rclavicle 7.49915e-014 -1.59028e-015
rhumerus -40.262 -31.4104 -24.3445
rradius 107.146
rwrist -55.3646
rhand -10.8615 8.90004
rfingers 7.12502
rthumb 15.154 -20.5251
lclavicle 7.49915e-014 -1.59028e-015
lhumerus -13.7376 6.32335 67.2781
lradius 99.1594
lwrist 41.4688
lhand -13.0733 56.8029
lfingers 7.12502
lthumb -166.977 266.376
rfemur -9.52513 1.69538 21.1115
rtibia 24.2304
rfoot -16.6781 -6.78916
rtoes -22.1932
lfemur -17.4185 0.079715 -18.2873
ltibia 25.266
lfoot -16.7603 16.9327
ltoes -5.42156
696
root -12.5366 17.6634 -0.379362 -175.758 -30.4266 -176.529
lowerback 5.10385 -1.99967 -2.85062
upperback -0.955851 -2.80781 1.29359
thorax -3.64728 -1.32284 3.16171
lowerneck -22.6464 2.29029 -0.294011
upperneck 43.499 -3.44082 5.6527
head 21.7961 -1.82782 1.70384
rclavicle -1.01877e-014 -1.15295e-014
rhumerus -40.7183 -31.4491 -24.6609
rradius 107.15
rwrist -54.4168
rhand -11.3308 9.5918
rfingers 7.12502
rthumb 14.7018 -19.8669
lclavicle -1.01877e-014 -1.15295e-014
lhumerus -14.5789 7.55064 66.8586
lradius 99.0179
lwrist 40.8532
lhand -13.6749 57.0615
lfingers 7.12502
lthumb -167.557 266.671
rfemur -8.58108 2.00003 21.3051
rtibia 22.9025
rfoot -16.326 -6.71594
rtoes -23.2121
lfemur -17.8422 -0.0304137 -18.1225
ltibia 25.4771
lfoot -16.4259 17.2479
ltoes -6.35048
697
root -12.4862 17.6642 -0.363311 -175.602 -30.2159 -176.487
lowerback 5.09513 -1.91392 -2.49738
upperback -0.971931 -2.66739 1.43947
thorax -3.67812 -1.2592 3.10419
lowerneck -22.5547 2.16792 -0.391282
upperneck 43.4117 -3.62062 5.72574
head 21.7194 -1.89917 1.71433
rclavicle -2.21396e-014 1.39149e-014
rhumerus -40.9892 -31.3855 -25.1532
rradius 107.197
rwrist -53.3913
rhand -11.8308 10.2527
rfingers 7.12502
rthumb 14.2201 -19.2405
lclavicle -2.21396e-014 1.39149e-014
lhumerus -15.4982 8.82802 66.3772
lradius 98.8135
lwrist 40.4438
lhand -14.2696 57.4907
lfingers 7.12502
lthumb -168.131 267.134
rfemur -7.68468 2.50358 21.5211
rtibia 21.4252
rfoot -16.0461 -6.37848
rtoes -21.9906
lfemur -18.2293 -0.342804 -17.8909
ltibia 25.6733
lfoot -16.5198 17.6554
ltoes -4.95279
698
root -12.4307 17.6616 -0.348012 -175.416 -29.9757 -176.495
lowerback 5.08692 -1.82274 -2.22058
upperback -0.974102 -2.52472 1.6049
thorax -3.69005 -1.19354 3.10913
lowerneck -22.5378 2.07155 -0.468071
upperneck 43.3811 -3.72913 5.70625
head 21.6987 -1.95209 1.6916
rclavicle -4.66399e-014 7.55382e-015
rhumerus -41.0389 -31.2218 -25.8507
rradius 107.23
rwrist -52.2976
rhand -12.3597 11.0016
rfingers 7.12502
rthumb 13.7103 -18.5267
lclavicle -4.66399e-014 7.55382e-015
lhumerus -16.4093 10.0892 66.0514
lradius 98.578
lwrist 40.4118
lhand -15.7118 57.4142
lfingers 7.12502
lthumb -169.522 267.133
rfemur -6.9001 3.33419 21.7021
rtibia 19.8386
rfoot -15.9104 -6.37443
rtoes -20.2472
lfemur -18.621 -0.50905 -17.6963
ltibia 25.852
lfoot -16.5533 17.9558
ltoes -4.30812
699
root -12.3666 17.6563 -0.330632 -175.157 -29.7449 -176.573
lowerback 5.12956 -1.72345 -2.02753
upperback -0.991045 -2.37797 1.75749
thorax -3.74304 -1.12333 3.14988
lowerneck -22.578 1.98581 -0.653407
upperneck 43.3595 -3.88457 5.90528
head 21.721 -2.01224 1.79414
rclavicle 2.84511e-014 5.96354e-015
rhumerus -40.9425 -30.9848 -26.7091
rradius 107.17
rwrist -51.345
rhand -12.709 11.8433
rfingers 7.12502
rthumb 13.3737 -17.7075
lclavicle 2.84511e-014 5.96354e-015
lhumerus -17.2694 11.4613 65.7284
lradius 98.2622
lwrist 40.125
lhand -16.6728 57.5905
lfingers 7.12502
lthumb -170.449 267.354
rfemur -6.33311 4.44198 21.8396
rtibia 18.2302
rfoot -15.807 -7.06084
rtoes -19.2316
lfemur -19.0873 -0.376275 -17.5783
ltibia 26.0127
lfoot -16.1943 18.0953
ltoes -6.07007
700
root -12.2963 17.6532 -0.311521 -174.829 -29.5215 -176.667
lowerback 5.1855 -1.60437 -1.83522
upperback -1.0436 -2.2052 1.89707
thorax -3.84257 -1.03928 3.1767
lowerneck -22.6124 1.9124 -0.749148
upperneck 43.3383 -4.0247 6.03515
head 21.7365 -2.0591 1.8477
rclavicle 1.52816e-015 3.97569e-015
rhumerus -40.8174 -30.6152 -27.6209
rradius 107.042
rwrist -50.5511
rhand -12.8714 12.5645
rfingers 7.12502
rthumb 13.2172 -16.9965
lclavicle 1.52816e-015 3.97569e-015
lhumerus -18.2111 12.7501 65.3608
lradius 98.0442
lwrist 40.2721
lhand -19.015 58.6793
lfingers 7.12502
lthumb -172.709 268.534
rfemur -6.05753 5.50104 21.9493
rtibia 16.7648
rfoot -15.578 -7.90887
rtoes -18.2435
lfemur -19.6136 -0.317229 -17.4501
ltibia 26.1211
lfoot -16.0478 18.2126
ltoes -6.03768
701
root -12.2203 17.6519 -0.29033 -174.506 -29.284 -176.692
lowerback 5.24471 -1.44434 -1.54396
upperback -1.07448 -1.97172 2.02965
thorax -3.9287 -0.928399 3.13472
lowerneck -22.6015 1.79163 -0.657373
upperneck 43.1924 -4.13101 5.88851
head 21.6223 -2.08448 1.7278
rclavicle 5.39421e-014 -4.84538e-015
rhumerus -40.6543 -30.1493 -28.6281
rradius 106.852
rwrist -49.5752
rhand -13.1664 13.2572
rfingers 7.12502
rthumb 12.9328 -16.3221
lclavicle 5.39421e-014 -4.84538e-015
lhumerus -19.1028 14.0037 65.019
lradius 97.6668
lwrist 40.3299
lhand -20.85 59.4185
lfingers 7.12502
lthumb -174.481 269.327
rfemur -6.02992 6.30088 22.1341
rtibia 15.6056
rfoot -15.1783 -8.58242
rtoes -17.5462
lfemur -20.1341 -0.489091 -17.204
ltibia 26.1251
lfoot -16.1481 18.4623
ltoes -3.76191
702
root -12.1373 17.6554 -0.26533 -174.143 -29.0105 -176.815
lowerback 5.39239 -1.26003 -1.35307
upperback -1.10105 -1.71265 2.14089
thorax -4.05855 -0.802106 3.12698
lowerneck -22.5312 1.63339 -0.636179
upperneck 42.9558 -4.27058 5.81159
head 21.4309 -2.12214 1.6489
rclavicle 1.91951e-014 -6.21202e-015
rhumerus -40.4112 -29.4874 -29.7908
rradius 106.609
rwrist -48.3611
rhand -13.5629 13.7396
rfingers 7.12502
rthumb 12.5506 -15.8634
lclavicle 1.91951e-014 -6.21202e-015
lhumerus -19.9551 14.9614 64.7758
lradius 97.5184
lwrist 41.8464
lhand -23.1297 60.8384
lfingers 7.12502
lthumb -176.682 449.208
rfemur -6.1589 6.98224 22.2567
rtibia 14.7542
rfoot -14.7367 -9.03763
rtoes -16.5633
lfemur -20.6215 -0.733047 -17.0228
ltibia 26.0583
lfoot -16.0612 18.9117
ltoes -2.39399
703
root -12.049 17.6629 -0.236966 -173.762 -28.7582 -177.033
lowerback 5.60766 -1.10646 -1.25137
upperback -1.11532 -1.50027 2.23867
thorax -4.20852 -0.696846 3.15998
lowerneck -22.4974 1.49308 -0.694855
upperneck 42.7598 -4.41582 5.84098
head 21.291 -2.16544 1.63981
rclavicle -2.8538e-014 -7.65321e-015
rhumerus -40.0553 -28.5916 -31.073
rradius 106.294
rwrist -47.1125
rhand -13.6928 14.0007
rfingers 7.12502
rthumb 12.4253 -15.61
lclavicle -2.8538e-014 -7.65321e-015
lhumerus -20.8143 16.2053 64.3606
lradius 96.9952
lwrist 42.4156
lhand -23.5435 61.6331
lfingers 7.12502
lthumb -177.082 448.407
rfemur -6.41898 7.59116 22.293
rtibia 14.1577
rfoot -14.2434 -9.25935
rtoes -15.5567
lfemur -21.0674 -1.23363 -16.8925
ltibia 25.9859
lfoot -16.1987 19.6175
ltoes -0.429373
704
root -11.9544 17.6684 -0.205627 -173.527 -28.5886 -177.008
lowerback 5.85706 -0.978231 -0.875091
upperback -1.03194 -1.30347 2.37445
thorax -4.28028 -0.609278 3.07672
lowerneck -22.6245 1.33181 -0.817651
upperneck 42.5281 -4.58449 5.96477
head 21.1858 -2.20515 1.68811
rclavicle 1.963e-015 -1.72943e-014
rhumerus -39.4873 -27.6671 -32.572
rradius 105.874
rwrist -45.5598
rhand -13.7647 14.2941
rfingers 7.12502
rthumb 12.3559 -15.3208
lclavicle 1.963e-015 -1.72943e-014
lhumerus -21.5925 17.564 63.8393
lradius 96.1404
lwrist 42.3
lhand -24.3154 61.6968
lfingers 7.12502
lthumb -177.827 448.334
rfemur -6.80294 8.11594 22.5627
rtibia 13.7868
rfoot -13.6107 -9.45775
rtoes -14.8611
lfemur -21.5252 -1.73205 -16.5017
ltibia 25.9127
lfoot -16.8841 20.2182
ltoes 4.07144
705
root -11.8543 17.6723 -0.169922 -173.413 -28.4895 -176.788
lowerback 6.18426 -0.852552 -0.282399
upperback -0.879684 -1.09479 2.53553
thorax -4.32688 -0.523361 2.89603
lowerneck -22.7697 1.16693 -0.924776
upperneck 42.1905 -4.74963 6.14515
head 21.016 -2.22389 1.7631
rclavicle 3.47873e-016 3.77691e-015
rhumerus -38.6923 -26.7009 -34.3451
rradius 105.283
rwrist -43.4565
rhand -13.9134 14.7137
rfingers 7.12502
rthumb 12.2126 -14.9098
lclavicle 3.47873e-016 3.77691e-015
lhumerus -22.3279 18.959 63.2931
lradius 95.084
lwrist 41.7922
lhand -24.8376 60.9117
lfingers 7.12502
lthumb -178.332 449.115
rfemur -7.20813 8.49843 23.0138
rtibia 13.4734
rfoot -12.8981 -9.59675
rtoes -14.8629
lfemur -22.0297 -2.1631 -15.9006
ltibia 25.8796
lfoot -16.8407 20.8089
ltoes 4.93286
706
root -11.7514 17.6796 -0.129005 -173.278 -28.4797 -176.603
lowerback 6.58106 -0.751418 0.28833
upperback -0.731226 -0.917427 2.69752
thorax -4.41197 -0.452688 2.73212
lowerneck -22.8331 1.02726 -0.909279
upperneck 41.7985 -4.86243 6.22084
head 20.7735 -2.21607 1.77204
rclavicle -3.52843e-014 -1.98785e-015
rhumerus -37.7583 -25.552 -36.2195
rradius 104.497
rwrist -41.2315
rhand -13.9635 15.0819
rfingers 7.12502
rthumb 12.1643 -14.5444
lclavicle -3.52843e-014 -1.98785e-015
lhumerus -23.1568 20.4089 62.7488
lradius 94.1005
lwrist 41.2505
lhand -24.3629 60.4642
lfingers 7.12502
lthumb -177.873 449.567
rfemur -7.59401 8.61895 23.4074
rtibia 13.0615
rfoot -12.3144 -9.48943
rtoes -15.2217
lfemur -22.624 -2.49038 -15.3489
ltibia 25.935
lfoot -15.2033 21.4439
ltoes -0.960095
